<mxfile host="app.diagrams.net" modified="2020-06-14T14:21:42.613Z" agent="5.0 (Windows NT 10.0; Win64; x64) AppleWebKit/537.36 (KHTML, like Gecko) Chrome/83.0.4103.61 Safari/537.36" etag="wUhi0rTrbP25-Wa43TWa" version="13.2.4" type="github">
  <diagram id="H-AtYfi4JVQoRXPYKVEc" name="第 1 页">
    <mxGraphModel dx="1422" dy="772" grid="1" gridSize="10" guides="1" tooltips="1" connect="1" arrows="1" fold="1" page="1" pageScale="1" pageWidth="827" pageHeight="1169" math="0" shadow="0">
      <root>
        <mxCell id="0" />
        <mxCell id="1" parent="0" />
        <mxCell id="hXZyT1r0rJxnU-BGcbAH-1" value="" style="rounded=1;whiteSpace=wrap;html=1;" vertex="1" parent="1">
          <mxGeometry x="55" y="280" width="525" height="130" as="geometry" />
        </mxCell>
        <mxCell id="hXZyT1r0rJxnU-BGcbAH-2" value="&lt;div style=&quot;text-align: left&quot;&gt;&lt;b&gt;智慧农业：&lt;/b&gt;&lt;/div&gt;" style="text;html=1;align=center;verticalAlign=middle;resizable=0;points=[];autosize=1;fontSize=15;" vertex="1" parent="1">
          <mxGeometry x="80" y="30" width="90" height="20" as="geometry" />
        </mxCell>
        <mxCell id="hXZyT1r0rJxnU-BGcbAH-3" value="&lt;div style=&quot;text-align: left&quot;&gt;&lt;b style=&quot;font-size: 15px&quot;&gt;首先：&lt;/b&gt;&lt;span style=&quot;font-size: 15px&quot;&gt;这里的智慧农业上的所有产品，可以同时面向工业物联网项目。&lt;/span&gt;&lt;/div&gt;&lt;span style=&quot;font-size: 15px&quot;&gt;&lt;div style=&quot;text-align: left&quot;&gt;智慧农业，指的农业生产过程的智能化系统集成。&lt;/div&gt;&lt;div style=&quot;text-align: left&quot;&gt;初期目标主要是面向农业生产过程的：&lt;/div&gt;&lt;div style=&quot;text-align: left&quot;&gt;&lt;b&gt;人力解放&lt;/b&gt;、&lt;/div&gt;&lt;div style=&quot;text-align: left&quot;&gt;&lt;b&gt;原材料管理&lt;/b&gt;、&lt;/div&gt;&lt;div style=&quot;text-align: left&quot;&gt;&lt;b&gt;品质监管&lt;/b&gt;、&lt;/div&gt;&lt;div style=&quot;text-align: left&quot;&gt;&lt;b&gt;成本管理&lt;/b&gt;、&lt;/div&gt;&lt;div style=&quot;text-align: left&quot;&gt;&lt;b&gt;再生产周期成本及利润的统计。&lt;/b&gt;&lt;/div&gt;&lt;div style=&quot;text-align: left&quot;&gt;&lt;span&gt;&lt;br&gt;&lt;/span&gt;&lt;/div&gt;&lt;/span&gt;" style="text;html=1;align=center;verticalAlign=middle;resizable=0;points=[];autosize=1;" vertex="1" parent="1">
          <mxGeometry x="50" y="110" width="480" height="130" as="geometry" />
        </mxCell>
        <mxCell id="hXZyT1r0rJxnU-BGcbAH-4" value="人力解放" style="rounded=1;whiteSpace=wrap;html=1;" vertex="1" parent="1">
          <mxGeometry x="40" y="460" width="115" height="30" as="geometry" />
        </mxCell>
        <mxCell id="hXZyT1r0rJxnU-BGcbAH-6" value="" style="rounded=1;whiteSpace=wrap;html=1;" vertex="1" parent="1">
          <mxGeometry x="55" y="280" width="205" height="90" as="geometry" />
        </mxCell>
        <mxCell id="hXZyT1r0rJxnU-BGcbAH-5" value="" style="rounded=1;whiteSpace=wrap;html=1;" vertex="1" parent="1">
          <mxGeometry x="55" y="280" width="65" height="20" as="geometry" />
        </mxCell>
        <mxCell id="hXZyT1r0rJxnU-BGcbAH-7" value="生产工具" style="text;html=1;align=center;verticalAlign=middle;resizable=0;points=[];autosize=1;" vertex="1" parent="1">
          <mxGeometry x="260" y="540" width="60" height="20" as="geometry" />
        </mxCell>
        <mxCell id="hXZyT1r0rJxnU-BGcbAH-8" value="生产方式" style="text;html=1;align=center;verticalAlign=middle;resizable=0;points=[];autosize=1;" vertex="1" parent="1">
          <mxGeometry x="367" y="485" width="60" height="20" as="geometry" />
        </mxCell>
        <mxCell id="hXZyT1r0rJxnU-BGcbAH-9" value="&lt;span style=&quot;font-size: 8px&quot;&gt;定位系统&lt;/span&gt;&lt;br style=&quot;font-size: 8px&quot;&gt;&lt;span style=&quot;font-size: 8px&quot;&gt;（LBS）&lt;/span&gt;" style="rounded=1;whiteSpace=wrap;html=1;" vertex="1" parent="1">
          <mxGeometry x="185" y="470" width="65" height="30" as="geometry" />
        </mxCell>
      </root>
    </mxGraphModel>
  </diagram>
</mxfile>
